#!OML:ASF F:\VICON\USERDATA\INSTALL\rory3\rory3.ASF
:FULLY-SPECIFIED
:DEGREES
18
root -0.7059993035202464 18.886081467318565 -23.189186671041178 4.128848801397121 3.7321826588276705 -5.4180001159311555
lfemur -35.547190528475994 -1.014098791286445 -17.176405734230325
ltibia 49.19140129141518
lfoot -0.3120019836297797 -2.261187851266686
ltoes -26.455083782401168
rfemur 11.316586551279062 5.471260103697694 32.59399409296446
rtibia 31.609310937142606
rfoot 27.370684709656757 -6.438559593595081
rtoes 10.99649505450363
lowerback 12.181518523034885 2.3103810178688446 5.425369792891148
upperback -2.2465477561831193 4.095160556580704 1.8355699686337934
thorax -9.026530372007896 1.7438406465078706 -1.8874512304396796
lowerneck -16.187426841341917 -5.217948148701051 -1.8894922753358347
upperneck 16.39128392027384 -7.001588991976596 1.6567295838093423
head 7.852956950423503 -3.2824672393679846 0.052491043516807556
lclavicle 7.933865361305437e-17 -3.510694174980234e-16
lhumerus -71.46818614599962 -2.872818066269822 95.67860656404532
lradius 102.75300590175831
lwrist 35.1594949796153
lhand -23.723807396293186 0.6866365385752431
lfingers 7.12502
lthumb 2.744052603667614 30.648704569825753
rclavicle 7.933865361305437e-17 -3.510694174980234e-16
rhumerus -42.919307440994444 16.194086710018084 -96.23480157760915
rradius 117.85198546571102
rwrist -9.866281022231622
rhand -15.271006692486836 47.17016174119753
rfingers 7.12502
rthumb 10.903393307255293 17.47326114259721
19
root -0.6959255662412704 18.924880838485013 -22.663286887027276 4.062749142822561 3.903922207641597 -5.545609676091714
lfemur -34.707990913496346 -1.7892570047354632 -16.929506112501713
ltibia 44.27830324452465
lfoot 1.1932789748729067 -3.479125827597929
ltoes -24.88098539834023
rfemur 11.850986321250225 6.352458210110875 33.18449307456027
rtibia 32.87541050079133
rfoot 27.640884521518416 -6.219499920386066
rtoes 18.25309033055932
lowerback 12.142918736190596 2.330860892355645 5.463089697154826
upperback -2.54882451440578 4.153200342183505 1.9357692172037684
thorax -9.338186090149957 1.7586205122132228 -1.8178514533457089
lowerneck -15.696829855691107 -5.273037742488477 -2.0343898468070525
upperneck 16.62108250471098 -7.067168662630411 1.7022891660150083
head 7.851956974448995 -3.320826816298152 0.0925820726218407
lclavicle 7.933858033594715e-17 -3.510694472145124e-16
lhumerus -72.63078536653803 -2.3046489780273696 95.52940706846177
lradius 102.91200573102908
lwrist 34.72119636971503
lhand -23.848906662018603 0.43563745437431267
lfingers 7.12502
lthumb 2.623263337780811 30.399205482124355
rclavicle 7.933858033594715e-17 -3.510694472145124e-16
rhumerus -43.876906531276205 16.965585371343348 -96.73280030386498
rradius 117.99398522368897
rwrist -9.070933918456767
rhand -16.082702613704868 46.09456738605491
rfingers 7.12502
rthumb 10.120297385190236 16.35796704342384
20
root -0.6875127856448828 18.95288038468761 -22.147887098701162 3.905609954495686 4.231741346410569 -5.681589207402981
lfemur -33.84969130727981 -2.5887051622020727 -16.688606481580596
ltibia 39.58520511017729
lfoot 2.284208220063734 -4.604073958436756
ltoes -24.91048536805613
rfemur 12.15868618880285 6.886767061946596 33.74319211099989
rtibia 34.60330990528438
rfoot 27.45338465207334 -5.717640669054576
rtoes 20.448788901189555
lowerback 12.281917968609143 2.2958311070395956 5.7386089978634445
upperback -1.7358532331438337 4.103420526068619 1.8654797443296813
thorax -8.507527502621667 1.7573005242070567 -2.023550794555904
lowerneck -20.20980212687347 -5.42239664116501 -1.6169668429476285
upperneck 18.139573150785047 -7.302367481443717 1.443691537428855
head 9.137956076946478 -3.3597063874932775 -0.23807501976862222
lclavicle 7.933867174281565e-17 -3.510693514178016e-16
lhumerus -71.01518644971216 -2.3679588764321178 95.25730798837944
lradius 102.75900589531568
lwrist 34.34359756730037
lhand -24.490202897907565 0.6489826759596984
lfingers 7.12502
lthumb 2.0039071020025974 30.61930467732707
rclavicle 7.933867174281565e-17 -3.510693514178016e-16
rhumerus -41.916908393272564 17.649384184842024 -96.425901088829
rradius 117.85298546400664
rwrist -8.953034347783408
rhand -18.133592307958978 42.679685307794756
rfingers 7.12502
rthumb 8.141377690320867 12.856485569151868
21
root -0.5965052860926837 18.677855922616608 -15.157677011985397 4.666301488803171 3.02148860589734 -5.782534803939473
lfemur -34.3103755520206 -2.4059169166019765 -16.75879093835243
ltibia 37.241225520754014
lfoot 1.4588173810183582 -6.507960718468223
ltoes -31.873618341874618
rfemur 12.039536458113766 7.719241636374967 35.32644396194481
rtibia 36.90947666468831
rfoot 25.154435148263495 -5.992714353492242
rtoes 20.00249456431079
lowerback 13.788297199425873 2.8382781159454487 5.758785060238926
upperback -2.2584170217049078 4.690388921288886 1.5918836762064463
thorax -9.127697599787366 2.0146221375968585 -2.675994704250204
lowerneck -19.333556623309565 -5.314872965408654 -1.6412850533000773
upperneck 16.127265350618767 -6.790863010724799 1.7518395786020902
head 8.399471889530039 -3.0483527081286472 0.14983282493372774
lclavicle 7.933867049836554e-17 -3.510693723773473e-16
lhumerus -70.99759273073201 -3.0593714535607273 94.87977553353923
lradius 102.9144312648342
lwrist 34.2085967983148
lhand -24.262544721294788 0.352275213837685
lfingers 7.12502
lthumb 2.1297425423804417 30.37624292046959
rclavicle 7.933867063038474e-17 -3.5106937228026404e-16
rhumerus -42.161393809698815 17.331724103075814 -96.54155979837687
rradius 118.21812413610125
rwrist -8.906383668243585
rhand -18.31511560216391 40.488019751019145
rfingers 7.12502
rthumb 7.6553361792643075 10.97142158606032
22
root -0.5339435272374443 18.52643365524905 -15.152447070013698 5.0906814791805015 2.3210901324808404 -5.663888456104151
lfemur -34.03419423948688 -2.1731036068711465 -17.14016421215312
ltibia 35.66990250843955
lfoot 1.7954128014810562 -8.131742145212273
ltoes -34.327821910171906
rfemur 11.76923718689282 8.276548600008871 35.382189058547425
rtibia 39.60298937858686
rfoot 23.98560953959345 -6.136733004969898
rtoes 20.612270325600107
lowerback 14.109719384106729 3.057030258738212 5.578871930868665
upperback -2.283015551551907 5.088782349280074 1.3528669872679242
thorax -9.236282839445513 2.179130839435971 -3.33075667124431
lowerneck -18.563795967934997 -5.311464569889122 -1.763082666215166
upperneck 14.880558936180837 -7.096889331716886 2.1675691841781988
head 7.921520040648912 -3.2707744652978668 0.24808914835213042
lclavicle 7.933867048735709e-17 -3.510693723859247e-16
lhumerus -70.40966264435404 -3.4446451503896327 94.70220984529787
lradius 103.01873168148231
lwrist 34.21088042800672
lhand -24.072768642085286 -0.13696207882296974
lfingers 7.12502
lthumb 2.2879905640629707 30.030565860208622
rclavicle 7.933867061200656e-17 -3.5106937229450407e-16
rhumerus -42.65864547309583 16.99470166416493 -96.96713943351538
rradius 118.32671373938204
rwrist -9.194713742885288
rhand -18.00191699969719 40.21033541236236
rfingers 7.12502
rthumb 7.814580786301236 10.983644306471723
23
root -0.487798812362101 18.425984494173733 -14.634093595346842 5.3171664791107585 1.9641918846438036 -5.361893378177982
lfemur -33.2332944978897 -1.9413862554092811 -17.77451518857471
ltibia 34.861776090187945
lfoot 2.992855276095611 -9.759704413585414
ltoes -32.89118034434742
rfemur 11.166494351475603 8.535535367881469 35.12552350307953
rtibia 42.65215316901802
rfoot 22.90203414834794 -6.405606421528492
rtoes 17.992373167877673
lowerback 14.139401928378 3.0995241343327447 5.283600403135772
upperback -2.2219214204772983 5.1099257401089035 1.1547271657062437
thorax -9.188876948000694 2.176101306338841 -3.7144918734100107
lowerneck -18.17557181022182 -5.270687323135842 -1.9116200711061917
upperneck 14.084562886995233 -7.238035442604608 2.5451674230337558
head 7.793584387558652 -3.285707850176278 0.37343331128897217
lclavicle 7.933867049262925e-17 -3.5106937238415934e-16
lhumerus -69.38528149101596 -3.6507458577982845 94.63374622065518
lradius 102.9637353875289
lwrist 34.222053465907315
lhand -24.175329751425004 -0.43994229063998547
lfingers 7.12502
lthumb 2.2734068320956835 29.805402221471322
rclavicle 7.933867061539003e-17 -3.510693722942973e-16
rhumerus -43.02899480346281 16.563129694385694 -97.2001990026971
rradius 118.22947544649296
rwrist -9.694041230963684
rhand -17.519427657481558 40.48498198679366
rfingers 7.12502
rthumb 8.171670602552469 11.230235441792548
